<?xml version="1.0" standalone="no"?>
<!DOCTYPE svg PUBLIC "-//W3C//DTD SVG 20010904//EN"
 "http://www.w3.org/TR/2001/REC-SVG-20010904/DTD/svg10.dtd">
<svg version="1.0" xmlns="http://www.w3.org/2000/svg"
 width="338.000000pt" height="307.000000pt" viewBox="0 0 338.000000 307.000000"
 preserveAspectRatio="xMidYMid meet">

<g transform="translate(0.000000,307.000000) scale(0.100000,-0.100000)"
fill="#000000" stroke="none">
<path d="M1614 2405 c-80 -81 -94 -82 -175 -15 -33 28 -68 50 -78 50 -9 0 -25
-14 -34 -32 -42 -82 -52 -93 -77 -91 l-25 2 27 -11 c33 -14 48 -53 17 -45 -11
3 -45 -3 -75 -13 -55 -19 -77 -9 -26 12 22 9 24 12 9 15 -11 3 -16 11 -13 19
10 26 -3 14 -32 -28 -28 -42 -31 -70 -9 -96 6 -8 11 -38 11 -68 1 -30 6 -54
11 -54 6 0 3 -5 -5 -10 -12 -8 -12 -10 5 -9 14 0 27 14 42 47 13 26 40 65 60
87 34 36 51 65 39 65 -16 0 -75 -44 -86 -64 -11 -22 -40 -26 -40 -5 0 12 42
54 67 67 31 17 73 15 73 -3 0 -7 7 -18 16 -23 14 -8 12 -12 -12 -32 l-29 -23
41 7 c44 6 54 -2 54 -45 0 -10 4 -19 10 -19 13 0 88 96 108 137 27 56 56 49
138 -34 39 -40 76 -73 83 -73 6 0 11 15 11 35 0 34 1 35 43 37 23 0 48 1 54 1
20 -1 6 13 -26 27 -40 16 -31 43 13 36 l31 -6 -34 13 c-20 8 -30 16 -24 20 6
4 9 16 6 27 -5 18 0 20 47 20 36 0 50 4 48 12 -3 8 -20 11 -47 9 -37 -2 -46 1
-72 31 -16 18 -37 45 -46 61 -10 15 -21 27 -26 27 -5 0 -38 -29 -73 -65z m181
-203 c-3 -3 -11 0 -18 7 -9 10 -8 11 6 5 10 -3 15 -9 12 -12z"/>
<path d="M1880 2290 c-12 -7 -10 -9 8 -7 12 0 22 5 22 9 0 11 -12 10 -30 -2z"/>
<path d="M1800 2285 c0 -2 15 -11 33 -18 17 -8 41 -25 52 -38 l20 -24 -26 23
c-43 37 -45 24 -4 -18 39 -40 40 -40 45 -18 3 13 12 24 20 24 8 1 20 2 26 3 7
0 14 10 17 21 4 16 1 18 -24 13 -21 -4 -29 -2 -29 8 0 9 -12 14 -37 14 -21 0
-50 4 -65 8 -16 4 -28 5 -28 2z"/>
<path d="M1856 2178 c10 -14 21 -24 23 -22 3 3 -6 15 -18 27 l-24 22 19 -27z"/>
<path d="M1800 2122 c0 -6 8 -17 19 -24 10 -7 28 -33 40 -56 12 -24 24 -42 27
-40 2 3 -5 22 -16 44 -20 40 -70 94 -70 76z"/>
<path d="M1900 2120 c0 -5 5 -10 10 -10 6 0 10 5 10 10 0 6 -4 10 -10 10 -5 0
-10 -4 -10 -10z"/>
<path d="M1920 2090 c0 -6 -4 -8 -10 -5 -6 3 -7 -1 -4 -10 4 -9 9 -12 13 -8 3
4 10 11 15 14 4 4 3 10 -3 13 -6 4 -11 2 -11 -4z"/>
<path d="M1366 2029 c-50 -36 -142 -137 -132 -146 2 -2 21 4 42 13 61 28 77
31 103 22 20 -7 30 -4 52 18 16 15 26 31 23 35 -2 4 -1 10 4 13 4 2 6 20 4 39
-6 51 -31 53 -96 6z"/>
<path d="M1636 2041 c-13 -14 -16 -28 -11 -55 10 -51 30 -63 113 -65 13 -1 22
-7 22 -16 0 -8 4 -15 9 -15 5 0 32 -27 60 -61 53 -63 61 -68 36 -19 -8 16 -12
41 -10 57 7 35 -20 81 -66 114 -18 12 -29 17 -25 10 5 -8 -3 -6 -19 5 -15 9
-31 28 -36 41 -11 29 -49 31 -73 4z"/>
<path d="M1600 2039 c0 -5 5 -7 10 -4 6 3 10 8 10 11 0 2 -4 4 -10 4 -5 0 -10
-5 -10 -11z"/>
<path d="M1934 2023 c4 -15 18 -38 32 -51 13 -13 24 -27 24 -31 0 -5 7 -11 15
-15 13 -5 14 -2 4 15 -6 11 -8 23 -5 26 10 10 -27 61 -52 72 -23 11 -24 10
-18 -16z"/>
<path d="M1115 1990 c-3 -5 -2 -10 4 -10 5 0 13 5 16 10 3 6 2 10 -4 10 -5 0
-13 -4 -16 -10z"/>
<path d="M1857 1955 c4 -27 7 -63 8 -78 2 -28 35 -74 35 -48 0 7 -5 21 -10 32
-6 10 -8 19 -5 19 3 0 13 -16 21 -36 8 -20 17 -34 20 -31 7 7 -16 89 -29 106
-6 7 -19 30 -29 50 l-18 36 7 -50z"/>
<path d="M1936 1910 c21 -43 24 -47 24 -28 0 9 -9 26 -20 39 l-21 24 17 -35z"/>
<path d="M1494 1885 c-10 -16 -13 -34 -9 -58 6 -32 4 -36 -26 -51 -35 -18 -94
-22 -84 -6 3 6 -1 7 -9 4 -9 -3 -14 -10 -11 -14 3 -5 1 -11 -4 -14 -14 -9 -7
19 9 40 14 16 13 16 -7 5 -31 -16 -40 -36 -48 -107 -6 -52 -4 -64 12 -79 10
-10 26 -30 35 -44 15 -22 18 -23 24 -8 3 9 15 17 25 17 10 0 19 3 19 8 0 4 9
13 20 19 16 11 25 9 53 -7 23 -14 46 -18 74 -16 28 3 45 0 56 -12 37 -40 49
-46 58 -31 11 18 11 29 -1 29 -5 0 -7 7 -4 15 9 22 34 18 34 -5 0 -11 7 -23
15 -26 19 -8 19 -19 -1 -39 -9 -9 -24 -13 -35 -10 -11 4 -19 2 -19 -4 0 -6
-11 -11 -25 -11 -14 0 -25 4 -25 10 0 5 -19 3 -45 -4 -25 -8 -45 -10 -45 -5 0
4 -6 7 -12 4 -7 -2 -41 -6 -75 -10 -54 -5 -65 -3 -83 15 -11 11 -18 25 -15 30
14 22 -8 30 -25 10 -13 -15 -19 -17 -23 -8 -3 7 -6 2 -6 -12 -1 -17 -4 -21 -9
-12 -11 16 -72 5 -72 -14 0 -22 22 -64 34 -64 6 0 3 -5 -7 -11 -14 -8 -16 -14
-6 -25 6 -8 18 -14 25 -14 8 0 14 -4 14 -10 0 -5 -16 -10 -35 -10 -19 0 -35
-4 -35 -10 0 -5 9 -10 20 -10 11 0 20 -5 20 -11 0 -7 12 -10 30 -7 17 3 30 1
30 -3 0 -11 -59 -29 -97 -29 -23 0 -33 -4 -30 -12 2 -7 14 -12 26 -11 15 2 21
-3 21 -17 0 -16 7 -20 38 -20 32 0 85 19 57 20 -5 1 5 7 22 15 23 10 31 19 27
29 -5 12 0 16 19 16 31 0 43 -36 21 -61 -13 -15 -13 -17 1 -23 9 -3 20 -4 25
-1 4 3 13 -2 20 -10 7 -8 19 -15 27 -15 13 0 13 3 3 15 -7 8 -17 12 -24 8 -6
-3 -8 -3 -4 2 4 4 3 14 -3 22 -16 19 5 17 25 -2 8 -9 20 -14 26 -13 7 2 19 -8
28 -22 16 -24 16 -24 -1 -11 -10 8 -17 9 -17 3 0 -6 25 -19 55 -28 30 -10 52
-21 49 -26 -3 -4 5 -4 18 1 17 6 30 5 43 -5 21 -15 49 -19 41 -6 -3 5 14 19
37 32 23 13 48 30 55 37 7 7 19 13 27 13 7 0 15 10 19 23 5 23 30 31 51 18 17
-12 75 -13 75 -2 0 5 -4 12 -10 16 -5 3 -7 12 -4 19 3 8 1 17 -5 21 -7 3 -8 0
-5 -9 3 -9 2 -16 -2 -16 -17 0 -31 15 -31 33 0 15 6 17 26 12 20 -4 22 -3 11
5 -8 5 -10 10 -4 10 6 0 10 10 10 23 -1 23 -31 57 -51 57 -7 0 -20 11 -29 25
-14 22 -15 25 -1 25 8 0 15 4 15 8 0 5 9 13 20 18 20 9 19 10 -12 46 l-32 37
-53 -30 c-30 -17 -57 -29 -60 -26 -9 9 7 58 16 52 5 -2 12 2 15 11 9 24 7 31
-8 31 -8 0 -12 -5 -10 -12 3 -6 -5 -11 -16 -11 -26 0 -25 16 1 50 31 40 27 77
-17 148 -29 45 -47 64 -64 67 -25 3 -25 3 -6 -18 11 -12 16 -24 13 -28 -4 -3
-7 -3 -7 2 0 4 -7 2 -16 -5 -20 -17 -41 3 -46 45 -4 38 -24 53 -71 53 -29 0
-42 -6 -53 -23z m136 -220 c-40 -22 -98 -28 -146 -15 -24 7 -44 17 -44 21 0 5
48 9 108 9 97 -1 105 -2 82 -15z m-100 -355 c-11 -11 -20 -25 -20 -32 0 -6 -3
-8 -6 -5 -8 8 23 57 36 57 6 0 1 -9 -10 -20z m288 -31 c-2 -15 -11 -23 -29
-25 l-26 -2 21 24 c26 29 38 31 34 3z m-78 -64 c0 -8 5 -15 10 -15 6 0 10 -4
10 -10 0 -20 -25 -9 -37 15 -9 20 -8 25 3 25 8 0 14 -7 14 -15z m-58 -33 c-6
-2 -8 -10 -5 -18 6 -16 -13 -19 -23 -3 -3 6 -1 15 6 19 8 5 9 13 4 21 -6 11
-3 10 10 -1 10 -8 13 -16 8 -18z"/>
<path d="M1796 1842 c-3 -5 1 -15 9 -22 16 -14 20 -3 6 19 -5 8 -11 9 -15 3z"/>
<path d="M1755 1790 c3 -5 8 -10 11 -10 2 0 4 5 4 10 0 6 -5 10 -11 10 -5 0
-7 -4 -4 -10z"/>
<path d="M1450 1570 c-13 -8 -12 -10 3 -10 9 0 17 5 17 10 0 12 -1 12 -20 0z"/>
<path d="M1745 1110 c3 -5 8 -10 11 -10 2 0 4 5 4 10 0 6 -5 10 -11 10 -5 0
-7 -4 -4 -10z"/>
<path d="M1975 1110 c3 -5 11 -10 16 -10 6 0 7 5 4 10 -3 6 -11 10 -16 10 -6
0 -7 -4 -4 -10z"/>
<path d="M2322 1058 c-22 -28 -42 -79 -36 -90 4 -6 15 5 28 28 l21 39 3 -32
c4 -39 15 -42 37 -10 16 21 16 21 10 -15 -5 -25 -3 -38 3 -38 11 0 32 61 32
93 0 21 -18 22 -41 1 -17 -15 -19 -14 -25 10 -7 29 -16 33 -32 14z"/>
<path d="M2443 988 c0 -18 -2 -41 -4 -50 -7 -30 16 -20 25 11 6 20 15 31 27
31 28 0 23 19 -7 30 -38 15 -40 13 -41 -22z"/>
<path d="M870 926 l0 -43 -71 -7 c-40 -3 -74 -4 -76 -2 -3 2 -7 23 -10 46 -3
23 -10 39 -17 37 -7 -2 -12 -52 -14 -145 -2 -117 0 -142 12 -142 18 0 26 31
26 103 l0 57 74 0 73 0 6 -72 c6 -75 19 -100 38 -81 8 8 8 46 0 144 -7 73 -14
136 -17 141 -13 21 -24 4 -24 -36z"/>
<path d="M1792 954 c-12 -8 -22 -10 -22 -5 0 6 -5 11 -10 11 -16 0 -9 -282 8
-288 8 -2 12 11 12 47 0 49 1 51 24 45 37 -9 92 13 122 49 53 63 8 157 -74
157 -21 0 -48 -7 -60 -16z m98 -34 c49 -49 8 -123 -65 -118 -39 3 -40 4 -43
45 -5 74 62 119 108 73z"/>
<path d="M2174 853 c-4 -16 -13 -33 -21 -40 -9 -7 -12 -17 -7 -25 5 -7 16 -33
24 -57 18 -52 37 -67 73 -57 36 9 34 26 -1 26 -21 0 -32 7 -40 25 -18 40 -14
52 19 59 35 7 35 29 1 34 -17 3 -22 10 -22 33 0 37 -18 38 -26 2z"/>
<path d="M2015 843 c-41 -41 -46 -112 -10 -148 27 -28 76 -33 95 -10 11 13 7
15 -22 15 -21 0 -41 7 -51 18 -27 30 -20 42 21 42 43 0 62 14 62 45 0 47 -62
71 -95 38z m62 -29 c7 -18 -12 -34 -39 -34 -21 0 -24 20 -6 38 17 17 37 15 45
-4z"/>
<path d="M2322 844 c-17 -12 -22 -24 -20 -47 2 -26 10 -35 41 -50 45 -21 47
-35 7 -44 -39 -7 -46 -19 -20 -33 25 -13 51 -6 75 20 16 17 16 24 6 44 -7 13
-28 30 -47 39 -19 9 -34 21 -34 26 0 18 29 32 54 25 31 -7 35 10 7 26 -27 14
-43 13 -69 -6z"/>
<path d="M998 834 c-32 -17 -48 -43 -48 -79 0 -63 51 -87 96 -44 l23 22 7 -27
c3 -14 13 -26 21 -26 13 0 14 11 9 68 -4 37 -9 74 -12 83 -6 21 -60 22 -96 3z
m59 -30 c5 -16 -41 -79 -57 -79 -26 0 -23 43 5 71 25 25 45 28 52 8z"/>
<path d="M1195 841 c-11 -5 -25 -6 -32 -4 -7 3 -14 -14 -18 -49 -9 -71 -2
-188 10 -189 6 0 14 23 19 51 8 43 12 50 32 50 29 0 64 44 64 81 0 16 -9 38
-20 49 -22 22 -25 22 -55 11z m45 -54 c0 -26 -28 -57 -52 -57 -25 0 -24 44 2
70 23 23 50 16 50 -13z"/>
<path d="M1368 845 c-3 -4 -19 -8 -34 -9 l-29 -3 0 -117 c0 -70 4 -116 10
-116 6 0 11 22 13 50 3 46 5 50 28 50 13 0 33 9 45 21 27 27 23 96 -7 115 -11
8 -23 12 -26 9z m21 -43 c13 -25 -8 -66 -37 -70 -18 -3 -22 1 -22 24 0 26 24
64 41 64 5 0 13 -8 18 -18z"/>
<path d="M1535 773 c-29 -62 -29 -62 -55 10 -5 16 -14 25 -20 22 -12 -7 -5
-44 17 -97 12 -29 13 -43 4 -69 -13 -38 -14 -69 -3 -69 11 0 31 46 72 159 36
101 25 131 -15 44z"/>
<path d="M1420 555 c0 -18 -5 -25 -20 -25 -12 0 -22 -9 -26 -24 -8 -34 2 -46
37 -46 29 0 29 0 29 60 0 33 -4 60 -10 60 -5 0 -10 -11 -10 -25z"/>
<path d="M1630 556 c0 -18 -6 -25 -22 -28 -18 -2 -23 -10 -23 -33 0 -27 4 -30
33 -33 l32 -3 0 60 c0 34 -4 61 -10 61 -5 0 -10 -11 -10 -24z"/>
<path d="M707 564 c-14 -14 -7 -43 15 -58 19 -14 20 -16 4 -16 -25 0 -16 -34
10 -38 44 -6 54 47 13 69 -26 13 -24 33 2 26 13 -3 19 -1 16 6 -4 14 -49 22
-60 11z"/>
<path d="M1122 544 c-16 -30 -1 -78 26 -82 25 -4 30 16 7 24 -21 8 -19 24 3
24 15 1 15 2 1 13 -9 7 -18 19 -21 27 -4 12 -7 11 -16 -6z"/>
<path d="M1180 550 c0 -5 5 -10 10 -10 6 0 10 5 10 10 0 6 -4 10 -10 10 -5 0
-10 -4 -10 -10z"/>
<path d="M2208 543 c-5 -60 10 -90 39 -79 17 7 17 8 -2 22 -17 13 -18 16 -5
25 11 8 12 12 3 16 -7 2 -13 11 -13 19 0 20 -20 17 -22 -3z"/>
<path d="M879 519 c-19 -19 -22 -19 -33 -4 -20 27 -50 15 -57 -23 -7 -39 -1
-82 12 -82 5 0 9 9 9 20 0 11 4 20 9 20 5 0 17 7 26 16 10 11 19 13 28 6 16
-13 62 -8 61 6 -1 7 -2 21 -2 31 -3 28 -30 33 -53 10z m-53 -36 c-10 -10 -19
5 -10 18 6 11 8 11 12 0 2 -7 1 -15 -2 -18z"/>
<path d="M1222 528 c-26 -26 -6 -68 31 -68 12 0 17 5 14 14 -3 7 -1 18 5 24 8
8 8 16 -2 27 -15 18 -32 19 -48 3z"/>
<path d="M1464 519 c-23 -26 -9 -52 29 -53 23 -1 27 2 27 24 0 24 -16 50 -30
50 -4 0 -15 -9 -26 -21z"/>
<path d="M1664 526 c-12 -30 0 -61 25 -64 18 -3 22 0 18 12 -4 9 -2 16 4 16 6
0 9 10 7 23 -4 26 -45 37 -54 13z"/>
<path d="M1916 527 c-11 -8 -17 -23 -14 -37 2 -20 9 -25 36 -26 26 -1 32 2 32
18 0 23 -17 58 -28 58 -5 0 -16 -6 -26 -13z"/>
<path d="M1984 525 c-4 -8 -1 -22 6 -30 9 -10 9 -15 1 -15 -16 0 -13 -17 4
-24 19 -7 45 3 45 17 0 6 -8 19 -17 30 -10 11 -12 17 -5 13 7 -4 12 -1 12 8 0
21 -39 21 -46 1z"/>
<path d="M2062 528 c-17 -17 -15 -57 3 -64 8 -4 23 -3 33 1 15 6 14 8 -6 16
-24 9 -26 34 -4 34 17 0 16 19 0 23 -7 1 -19 -3 -26 -10z"/>
<path d="M2286 527 c-11 -8 -17 -23 -14 -37 2 -20 9 -25 36 -26 35 -2 39 7 22
50 -11 29 -19 32 -44 13z"/>
<path d="M2354 525 c-4 -8 -1 -22 6 -30 9 -10 9 -15 1 -15 -16 0 -13 -17 4
-24 19 -7 45 3 45 17 0 6 -8 19 -17 30 -10 11 -12 17 -5 13 7 -4 12 -1 12 8 0
21 -39 21 -46 1z"/>
<path d="M993 472 c1 -37 6 -62 13 -62 9 0 54 93 54 113 0 14 -28 7 -34 -10
-6 -14 -8 -14 -20 3 -13 17 -14 12 -13 -44z"/>
<path d="M1187 523 c-11 -10 -8 -63 3 -63 6 0 10 16 10 35 0 36 -2 40 -13 28z"/>
<path d="M1290 494 c0 -37 13 -44 29 -16 9 16 10 16 16 0 12 -30 26 -20 23 15
-3 28 -7 32 -35 34 -31 1 -33 -1 -33 -33z"/>
<path d="M1780 493 c0 -38 16 -44 30 -10 l9 22 0 -22 c1 -27 27 -31 34 -5 4
16 5 16 6 0 0 -10 6 -18 11 -18 17 0 23 27 11 48 -8 16 -21 20 -56 19 -44 -1
-45 -1 -45 -34z"/>
<path d="M2130 515 c-19 -23 -8 -50 22 -53 22 -3 29 2 34 22 3 14 3 30 -1 35
-9 16 -41 13 -55 -4z"/>
</g>
</svg>
